<?xml version="1.0" standalone="yes"?>
<svg xmlns="http://www.w3.org/2000/svg" width="452" height="225">
<path style="fill:#060606; stroke:none;" d="M0 0L0 225L452 225L452 0L0 0z"/>
<path style="fill:#e94336; stroke:none;" d="M169 44C175.076 46.5744 190.965 55.9196 197 53.7431C203.149 51.5254 213.617 46.5107 217.258 40.9568C221.022 35.215 218.781 26.5766 211.996 24.5139C199.544 20.7282 179.629 38.4018 169 44z"/>
<path style="fill:#2e8fb0; stroke:none;" d="M239.015 24.858C231.998 27.7908 231.166 37.5585 236.228 42.6713C244.878 51.4064 259.396 55.5327 270 61.4097C274.143 63.7058 279.46 66.2165 284.242 64.142C291.536 60.9779 290.783 51.4076 285.956 46.554C277.629 38.1814 263.345 32.8037 253.039 27.0849C248.68 24.6658 243.995 22.7768 239.015 24.858z"/>
<path style="fill:#9b999b; stroke:none;" d="M168 44L167 46L169 46L168 44z"/>
<path style="fill:#2e8fb0; stroke:none;" d="M169.015 45.5733C161.341 47.7935 160.202 57.4065 165.344 62.7369C173.439 71.1276 188.74 77.2921 199 82.821C203.139 85.0515 207.286 86.6741 211.995 85.1952C219.7 82.7757 221.08 72.765 215.772 67.2099C207.64 58.6995 194.003 55.2961 184 49.5787C179.393 46.9457 174.531 43.9774 169.015 45.5733z"/>
<path style="fill:#9b999b; stroke:none;" d="M176 45L177 46L176 45M178 46L179 47L178 46M180 47L181 48L180 47M183 49L184 50L183 49M185 50L186 51L185 50M187 51L188 52L187 51M190 53L191 54L190 53M192 54L193 55L192 54z"/>
<path style="fill:#fabd05; stroke:none;" d="M282 66C275.891 63.3589 262.48 54.6343 256.09 55.659C246.677 57.1683 223.059 72.2668 236.279 83.2971C247.03 92.2676 272.776 72.0844 282 66z"/>
<path style="fill:#9b999b; stroke:none;" d="M259 55L260 56L259 55M261 56L262 57L261 56M263 57L264 58L263 57M201 58L202 59L201 58M264 58L265 59L264 58M266 59L267 60L266 59M268 60L269 61L268 60M270 61L271 62L270 61M271 62L272 63L271 62M273 63L274 64L273 63M275.667 64.3333L276.333 64.6667L275.667 64.3333M282 64L283 65L282 64z"/>
<path style="fill:#2e8fb0; stroke:none;" d="M68 126L56 126L56 130L64 130C54.6489 147.039 40.9472 120.614 56.0039 119.042C58.6378 118.768 61.5085 120.297 64 121L65 120C58.9196 107.944 42.1457 118.249 44.2292 130C47.1188 146.298 67.6923 140.827 68 126M125 115L125 139L129 139L129 115L125 115M155 139C159.161 139 163.868 139.583 167.91 138.442C188.074 132.751 165.736 104.346 156.028 116.603C152.638 120.883 155 133.679 155 139M228 115L228 139L231 139L231 115L228 115z"/>
<path style="fill:#fabd05; stroke:none;" d="M311 115L312 116L311 115z"/>
<path style="fill:#2e8fb0; stroke:none;" d="M329 126L317 126L317 130L325 130C315.457 146.727 301.312 120.677 317.004 119.042C319.638 118.768 322.508 120.296 325 121L326 117C322.991 115.725 320.309 114.951 317 115.023C289.562 115.618 315.723 156.495 327.583 133.815C328.875 131.344 328.936 128.715 329 126z"/>
<path style="fill:#9b999b; stroke:none;" d="M310 116L311 117L310 116M48 117L49 118L48 117M64 117L65 118L64 117z"/>
<path style="fill:#060606; stroke:none;" d="M160 119L160 136C174.226 135.26 174.259 119.663 160 119z"/>
<path style="fill:#9b999b; stroke:none;" d="M165 119L166 120L165 119z"/>
<path style="fill:#fabd05; stroke:none;" d="M76 121L77 122L76 121z"/>
<path style="fill:#2e8fb0; stroke:none;" d="M87 131L88 131C88.9839 139.646 101.22 143.845 104.343 133.96C108.505 120.789 92.6681 119.118 87 129C83.0859 119.32 67.4796 119.882 69.5123 131.999C71.4094 143.308 85.3864 141.074 87 131z"/>
<path style="fill:#9b999b; stroke:none;" d="M79 121L80 122L79 121z"/>
<path style="fill:#fabd05; stroke:none;" d="M94 121L95 122L94 121z"/>
<path style="fill:#9b999b; stroke:none;" d="M113 121L114 122L113 121z"/>
<path style="fill:#2e8fb0; stroke:none;" d="M111 139L111 140L106 141C116.186 159.56 131.049 130.927 121.436 123.077C111.631 115.071 99.2439 131.75 111 139z"/>
<path style="fill:#9b999b; stroke:none;" d="M115 121L116 122L115 121z"/>
<path style="fill:#fabd05; stroke:none;" d="M239 121L240 122L239 121z"/>
<path style="fill:#2e8fb0; stroke:none;" d="M240.004 121.743C228.323 122.895 231.485 141.514 242.995 139.681C253.802 137.96 250.815 120.677 240.004 121.743z"/>
<path style="fill:#9b999b; stroke:none;" d="M259 121L260 122L259 121z"/>
<path style="fill:#2e8fb0; stroke:none;" d="M252 147L255 138C261.08 141.227 266.891 139.12 268 132L270 132C271.454 141.339 282.059 142.177 286 134C280.963 133.515 277.794 136.385 274 132C276.919 132 281.926 132.909 284.371 130.987C287.798 128.294 283.782 123.638 280.978 122.6C275.069 120.413 271.431 124.231 269 129C266.583 124.363 255.556 116.426 251.603 124.329C249.066 129.402 250.446 141.741 252 147z"/>
<path style="fill:#9b999b; stroke:none;" d="M294 121L295 122L294 121z"/>
<path style="fill:#2e8fb0; stroke:none;" d="M288 122L288 139L292 139C292.001 132.011 292.158 128.115 299 125C296.505 120.597 292.502 122.124 288 122z"/>
<path style="fill:#fabd05; stroke:none;" d="M297 121L298 122L297 121z"/>
<path style="fill:#2e8fb0; stroke:none;" d="M331 122L331 139L335 139C335.001 132.754 334.638 127.15 342 126C339.413 134.775 348.637 146.073 356.397 136.606C364.732 126.436 350.458 119.504 342 125C339.537 120.683 335.44 122.282 331 122z"/>
<path style="fill:#fabd05; stroke:none;" d="M340 121L341 122L340 121z"/>
<path style="fill:#2e8fb0; stroke:none;" d="M377 147L381 147L381 138C386.501 140.916 389.67 139.004 394 135C402.029 148.019 415.771 129.869 399 128L399 126L408 127C404.75 120.808 396.918 120.391 394 127C390.871 123.661 379.849 117.558 376.6 124.321C374.111 129.5 375.422 141.662 377 147z"/>
<path style="fill:#9b999b; stroke:none;" d="M386 121L387 122L386 121M81 122L82 123L81 122M92 122L93 123L92 122M110 122L111 123L110 122M122 122L123 123L122 122z"/>
<path style="fill:#2e8fb0; stroke:none;" d="M146 134C140.802 134.038 138.096 136.228 134 132L147 132C146.046 121.577 131.622 117.784 130.348 130.001C129.309 139.967 142.582 143.505 146 134M193 134C187.963 133.515 184.794 136.385 181 132C182.994 132 185.007 132.07 187 131.981C202.572 131.28 176.227 110.818 176.373 130.985C176.447 141.162 189.05 142.196 193 134M193 122C193.356 125.551 196.493 139.79 201.87 138.248C206.271 136.986 208.724 125.89 210 122C204.595 123.15 203.199 126.957 202 132L200 132C198.782 127.55 197.68 123.473 193 122z"/>
<path style="fill:#9b999b; stroke:none;" d="M196 122L197 123L196 122M205.667 122.333L206.333 122.667L205.667 122.333z"/>
<path style="fill:#2e8fb0; stroke:none;" d="M226 134C220.963 133.515 217.794 136.385 214 132C215.994 132 218.007 132.07 220 131.981C235.572 131.28 209.227 110.818 209.373 130.985C209.447 141.162 222.05 142.196 226 134z"/>
<path style="fill:#9b999b; stroke:none;" d="M244 122L245 123L244 122M251 122L252 123L251 122M291 122L292 123L291 122M298 122L299 123L298 122M334 122L335 123L334 122M336 122L337 123L336 122M341 122L342 123L341 122M345 122L346 123L345 122M353 122L354 123L353 122z"/>
<path style="fill:#2e8fb0; stroke:none;" d="M359 122C359 136.345 360.584 139.619 375 139L374 122L370 122L369.999 127.025C369.981 129.548 368.156 139.082 364.027 133.522C360.946 129.374 365.166 124.047 359 122z"/>
<path style="fill:#9b999b; stroke:none;" d="M362 122L363 123L362 122M371 122L372 123L371 122M374 122L375 123L374 122M376 122L377 123L376 122M388 122L389 123L388 122M143 123L144 124L143 123M170 123L171 124L170 123M344 123L345 124L344 123M355 123L356 124L355 123M144 124L145 125L144 124M103 125L104 126L103 125M349 125L350 126L349 125M75 126L74 128L75 126z"/>
<path style="fill:#060606; stroke:none;" d="M76.3032 127.046C72.2399 129.639 75.0103 137.527 79.892 134.917C85.0714 132.149 81.4335 123.772 76.3032 127.046z"/>
<path style="fill:#9b999b; stroke:none;" d="M88 126L89 127L88 126z"/>
<path style="fill:#060606; stroke:none;" d="M94.3171 127.047C89.7455 129.857 93.6709 138.049 98.581 134.802C103.041 131.853 99.266 124.005 94.3171 127.047M112.433 127.047C108.292 129.767 112.373 137.654 116.556 134.338C120.258 131.403 116.948 124.082 112.433 127.047M135 129L142 129C139.728 125.86 137.158 125.668 135 129M181 129L189 129C186.074 126.057 183.926 126.057 181 129z"/>
<path style="fill:#9b999b; stroke:none;" d="M203 126L204 127L203 126z"/>
<path style="fill:#060606; stroke:none;" d="M214 129L222 129C219.074 126.057 216.926 126.057 214 129z"/>
<path style="fill:#9b999b; stroke:none;" d="M238 126L239 127L238 126z"/>
<path style="fill:#060606; stroke:none;" d="M239.303 127.046C235.24 129.639 238.01 137.527 242.892 134.917C248.071 132.149 244.433 123.772 239.303 127.046M257.573 127.032C252.967 130.264 258.075 138.182 262.552 134.377C266.541 130.987 262.179 123.8 257.573 127.032M274 129L281 129C278.814 125.677 276.599 126.376 274 129z"/>
<path style="fill:#9b999b; stroke:none;" d="M341 126L342 127L341 126z"/>
<path style="fill:#060606; stroke:none;" d="M347.437 127.047C343.296 129.727 347.21 137.434 351.686 134.914C356.316 132.307 352.262 123.924 347.437 127.047M383.313 127.047C379.26 129.573 382.031 137.606 386.808 134.917C391.49 132.282 388.349 123.908 383.313 127.047z"/>
<path style="fill:#fabd05; stroke:none;" d="M393 126L394 127L393 126z"/>
<path style="fill:#9b999b; stroke:none;" d="M106 127L107 128L106 127M198 127L199 128L198 127M285 127L286 128L285 127M69 128L70 129L69 128M87 128L88 129L87 128M130 128L131 129L130 128M175.333 128.667L175.667 129.333L175.333 128.667M232 128L233 129L232 128M269 128L270 129L269 128M281 128L282 129L281 128M335 128L336 129L335 128z"/>
<path style="fill:#060606; stroke:none;" d="M394 128L394 134L404 135L394 128z"/>
<path style="fill:#9b999b; stroke:none;" d="M389 129L390 130L389 129M206 130L207 131L206 130M406 130L407 131L406 130M87.3333 131.667L87.6667 132.333L87.3333 131.667M192 131L193 132L192 131M225 131L226 132L225 131M285 131L286 132L285 131M397 131L398 132L397 131M407 131L408 132L407 131M67 132L68 133L67 132M110 132L111 133L110 132M118 132L119 133L118 132M134 132L135 133L134 132M196 132L197 133L196 132M269.333 132.667L269.667 133.333L269.333 132.667M310 132L311 133L310 132M328 132L329 133L328 132M345 132L346 133L345 132M50 133L51 134L50 133M176 133L177 134L176 133M205 133L206 134L205 133M209 133L210 134L209 133M323 133L324 134L323 133M397 133L398 134L397 133z"/>
<path style="fill:#fabd05; stroke:none;" d="M52 134L53 135L52 134z"/>
<path style="fill:#9b999b; stroke:none;" d="M61 134L62 135L61 134z"/>
<path style="fill:#fabd05; stroke:none;" d="M75 134L76 135L75 134M93 134L94 135L93 134z"/>
<path style="fill:#9b999b; stroke:none;" d="M141 134L142 135L141 134M167 134L168 135L167 134z"/>
<path style="fill:#fabd05; stroke:none;" d="M238 134L239 135L238 134z"/>
<path style="fill:#9b999b; stroke:none;" d="M346 134L347 135L346 134M359 134L360 135L359 134M363 134L364 135L363 134M369 134L370 135L369 134z"/>
<path style="fill:#fabd05; stroke:none;" d="M382 134L383 135L382 134z"/>
<path style="fill:#9b999b; stroke:none;" d="M46 135L47 136L46 135M112 135L113 136L112 135M116 135L117 136L116 135M399 135L400 136L399 135M403 135L404 136L403 135M71 136L72 137L71 136M103 136L104 137L103 136M131 136L132 137L131 136M145 136L146 137L145 136M171 136L172 137L171 136M178.333 136.667L178.667 137.333L178.333 136.667M211.333 136.667L211.667 137.333L211.333 136.667M234 136L235 137L234 136M308 136L309 137L308 136M325 136L326 137L325 136M48 137L49 138L48 137M90 137L91 138L90 137M198 137L199 138L198 137M271 137L272 138L271 137M50 138L51 139L50 138M91 138L92 139L91 138M203 138L204 139L203 138M311 138L312 139L311 138M381 138L382 139L381 138M75 139L76 140L75 139M93 139L94 140L93 139z"/>
<path style="fill:#060606; stroke:none;" d="M117 139L111 140C112.902 142.659 118.059 143.442 117 139z"/>
<path style="fill:#9b999b; stroke:none;" d="M118 139L119 140L118 139M135 139L136 140L135 139M238 139L239 140L238 139M346 139L347 140L346 139M352 139L353 140L352 139M121 143L122 144L121 143M117 146L118 147L117 146z"/>
<path style="fill:#fabd05; stroke:none;" d="M118 146L119 147L118 146M251 146L252 147L251 146z"/>
<path style="fill:#9b999b; stroke:none;" d="M253.667 146.333L254.333 146.667L253.667 146.333M378.667 146.333L379.333 146.667L378.667 146.333z"/>
<path style="fill:#2e8fb0; stroke:none;" d="M165 167C151.755 172.076 152.107 155.1 164 160L165 157C156.588 152.957 145.053 161.417 153.318 169.682C156.939 173.303 165.099 172.88 165 167M167 155L167 172L170 172L170 155L167 155M206 155L206 161C200.299 159.381 192.303 164.704 198.518 170.396C200.926 172.601 204.998 171.781 208 172L208 155L206 155z"/>
<path style="fill:#9b999b; stroke:none;" d="M229 155L230 156L229 155z"/>
<path style="fill:#2e8fb0; stroke:none;" d="M230 155L229 172L232 172L232 161L233 161C235.051 165.387 237.182 170.41 242 172L242 155L240 155L240 167L230 155z"/>
<path style="fill:#9b999b; stroke:none;" d="M232 155L233 156L232 155z"/>
<path style="fill:#2e8fb0; stroke:none;" d="M174.148 161.029C167.279 165.044 174.261 175.099 180.696 170.971C186.989 166.935 180.768 157.159 174.148 161.029M185 160C185 169.492 185.544 171.311 195 172L195 160L192 160L191 170L187 160L185 160z"/>
<path style="fill:#9b999b; stroke:none;" d="M245 160L246 161L245 160z"/>
<path style="fill:#2e8fb0; stroke:none;" d="M244 163L251 163L251 164C248.095 164.222 240.955 167.21 245.607 170.969C247.625 172.599 251.553 171.822 254 172C253.999 166.595 250.601 153.659 244 163z"/>
<path style="fill:#9b999b; stroke:none;" d="M252 160L253 161L252 160z"/>
<path style="fill:#2e8fb0; stroke:none;" d="M264 172L256 173C258.069 176.752 263.9 178.818 266.258 173.772C268.037 169.963 267 164.116 267 160C263.995 160.204 259.94 159.413 257.524 161.6C251.469 167.082 258.746 171.829 264 172M269 160L269 177L272 172C277.039 171.836 285.657 166.063 278.566 161.179C275.998 159.41 271.951 160.002 269 160z"/>
<path style="fill:#9b999b; stroke:none;" d="M278 160L279 161L278 160z"/>
<path style="fill:#2e8fb0; stroke:none;" d="M282 160C282.001 169.575 283.575 171.487 293 172L293 160L290 160L286 170L285 160L282 160M295 160L295 172L297 172L302 160L295 160z"/>
<path style="fill:#9b999b; stroke:none;" d="M297 160L298 161L297 160M218 161L219 162L218 161M253 161L254 162L253 161z"/>
<path style="fill:#060606; stroke:none;" d="M176.279 163.176C173.105 164.807 175.17 170.46 178.57 168.673C181.625 167.067 179.596 161.471 176.279 163.176M201.279 163.176C198.105 164.807 200.17 170.46 203.57 168.673C206.625 167.067 204.596 161.471 201.279 163.176z"/>
<path style="fill:#2e8fb0; stroke:none;" d="M216 162C216.577 165.474 217.526 166.423 221 167L221 162L216 162z"/>
<path style="fill:#060606; stroke:none;" d="M260.264 163.175C257.194 164.794 259.214 170.333 262.415 168.593C265.024 167.174 263.422 161.51 260.264 163.175z"/>
<path style="fill:#9b999b; stroke:none;" d="M273 162L272 164L273 162z"/>
<path style="fill:#060606; stroke:none;" d="M274.264 163.256C271.627 164.551 272.577 169.837 275.74 168.655C278.787 167.517 277.605 161.616 274.264 163.256z"/>
<path style="fill:#9b999b; stroke:none;" d="M301 162L302 163L301 162M221.333 163.667L221.667 164.333L221.333 163.667M237 163L238 164L237 163M255 164L256 165L255 164M297 164L298 165L297 164M247 166L248 167L247 166z"/>
<path style="fill:#060606; stroke:none;" d="M248 166L247 170L251 169L251 167L250 166L248 166z"/>
<path style="fill:#9b999b; stroke:none;" d="M250 166L251 167L250 166M255 166L256 167L255 166M246 168L247 169L246 168M260 169L261 170L260 169M279 170L280 171L279 170M289 171L290 172L289 171M257 172L258 173L257 172z"/>
<path style="fill:#060606; stroke:none;" d="M258 172L258 173L264 174L264 172L258 172z"/>
<path style="fill:#9b999b; stroke:none;" d="M261 174L262 175L261 174M271 176L272 177L271 176z"/>
</svg>
