<?xml version="1.0" standalone="yes"?>
<svg xmlns="http://www.w3.org/2000/svg" width="600" height="100">
<path style="fill:#0e0f10; stroke:none;" d="M0 0L0 100L600 100L600 0L0 0z"/>
<path style="fill:#d1ac3e; stroke:none;" d="M41 16L42 17L41 16z"/>
<path style="fill:#e94236; stroke:none;" d="M20 28C24.8209 30.3787 33.6332 36.5179 39 35.2963C43.4324 34.2874 50.1516 30.0741 52.2569 25.946C55.5769 19.4362 48.7823 15.3172 43 16.3441C34.8284 17.7955 27.649 24.8146 20 28z"/>
<path style="fill:#d1ac3e; stroke:none;" d="M49 16L50 17L49 16z"/>
<path style="fill:#328fbd; stroke:none;" d="M64.1481 17.0278C59.5225 19.7647 60.824 26.2939 64.2284 29.3904C69.1212 33.8408 90.3366 45.8797 96.5664 41.1682C100.385 38.2805 98.8429 32.4834 95.7716 29.7886C89.9103 24.6459 72.1456 12.2958 64.1481 17.0278z"/>
<path style="fill:#585a9a; stroke:none;" d="M146 41L147 41C149.413 54.2224 167.43 56.0696 170 42L171 42C173.203 54.1286 190.397 55.7911 193 43L194 43C196.545 50.4649 202.592 53.1848 210 51C205.904 58.7747 199.074 49.2723 196.137 53.6188C191.612 60.3149 208.875 60.6623 211.892 58.9722C219.596 54.6572 216 36.519 216 29C206.427 29.2114 198.727 26.348 194 37C188.657 27.0725 173.776 24.2806 171 38L170 38C167.538 25.8314 151.563 25.2623 148 37L147 37L147 34L130 34C130.994 39.9569 135.977 38.9994 141 39C139.552 41.2232 138.224 43.4875 135.894 44.9082C123.399 52.5269 113.967 27.9735 129.999 25.0941C133.237 24.5127 135.312 26.1406 138.266 26.8202C140.427 27.3174 143.042 25.9287 141.824 23.3742C139.546 18.5958 130.146 18.7043 126 19.9429C117.275 22.5492 113.516 31.5463 115.532 40C119.057 54.7764 142.781 56.9226 146 41M483 34L466 34C466.994 39.9569 471.977 38.9994 477 39C466.565 58.6432 447.101 31.0478 464.914 25.3542C468.877 24.0875 471.248 26.9898 474.941 27.1366C477.522 27.2391 479.031 24.7384 477.338 22.6474C465.948 8.58253 445.237 29.6609 453.14 43.9961C462.4 60.7952 482.866 49.9622 483 34z"/>
<path style="fill:#d1ac3e; stroke:none;" d="M470 19L471 20L470 19z"/>
<path style="fill:#585a9a; stroke:none;" d="M218 20L219 52L223 52L224 20L218 20M258 20L259 52C270.086 49.3681 281.711 53.2009 284 38L285 38C285.998 50.1997 300.344 58.9284 307 45C300.339 42.2773 296.828 48.2948 291 42L307 42L307 35L308 35C308.937 38.9448 311.879 51.213 317 51.213C323.012 51.213 327.291 33.7343 328 29C320.212 29.259 319.859 35.8857 317 42C314.557 35.6678 313.77 29.2582 306 29L307 35L306 35C301.489 25.6141 288.159 26.3984 286 37C280.149 21.4945 274.06 20 258 20M351 20L352 52L356 52L357 42L358 42C360.798 55.8574 380.914 54.6445 380.914 40C380.914 25.8961 360.727 24.5227 358 38L357 38L357 20L351 20z"/>
<path style="fill:#328fbd; stroke:none;" d="M457 22L458 23L457 22z"/>
<path style="fill:#d1ac3e; stroke:none;" d="M29 23L30 24L29 23M130.667 24.3333L131.333 24.6667L130.667 24.3333M467 24L468 25L467 24M135 25L136 26L135 25z"/>
<path style="fill:#328fbd; stroke:none;" d="M136 25L137 26L136 25z"/>
<path style="fill:#0e0f10; stroke:none;" d="M264 25L264 46C282.104 45.948 282.104 25.1519 264 25z"/>
<path style="fill:#328fbd; stroke:none;" d="M274 26L275 27L274 26M453 26L454 27L453 26z"/>
<path style="fill:#d1ac3e; stroke:none;" d="M51 27L52 28L51 27z"/>
<path style="fill:#328fbd; stroke:none;" d="M138 27L139 28L138 27z"/>
<path style="fill:#d1ac3e; stroke:none;" d="M50 28L51 29L50 28z"/>
<path style="fill:#328fbd; stroke:none;" d="M183 28L184 29L183 28z"/>
<path style="fill:#585a9a; stroke:none;" d="M247 45C240.247 42.254 236.955 48.4728 231 42L247 42C246.881 28.8773 228.835 21.7557 225.395 37.0008C222.272 50.8414 240.846 57.8784 247 45M334 42C337.497 42 345.55 43.4866 347.971 40.3966C353.408 33.4593 341.729 27.0861 336.001 28.5872C324.572 31.5822 324.749 50.5945 337.001 51.8904C339.716 52.1777 352.171 49.6769 347.288 44.6582C343.781 41.0542 338.798 48.217 334 42M382 29L382 60L388 60L388 51C399.575 53.7546 411.233 41.2015 400.772 31.3032C395.758 26.5597 388.164 29.1393 382 29z"/>
<path style="fill:#328fbd; stroke:none;" d="M395 28L396 29L395 28z"/>
<path style="fill:#585a9a; stroke:none;" d="M427 44C419.845 43.2055 417.218 47.6759 411 42L427 42C426.99 38.3434 427.319 34.2645 424.566 31.419C417.696 24.3168 406.033 29.8413 405.229 39C404.049 52.4374 423.718 57.4806 427 44M434 52C435.79 44.4809 432.692 34.7798 443 34C442.517 27.9386 434.262 26.273 429.589 30.0386C424.262 34.331 427.228 50.8637 434 52z"/>
<path style="fill:#328fbd; stroke:none;" d="M438 28L439 29L438 28z"/>
<path style="fill:#585a9a; stroke:none;" d="M485 29L486 52L490 52C490 44.5635 488.632 35.4587 498 34C495.245 45.5709 507.422 60.6651 517.486 47.8912C528.012 34.5302 510.434 24.9035 499 32C497.081 26.5613 489.798 29.1084 485 29z"/>
<path style="fill:#d1ac3e; stroke:none;" d="M506 28L507 29L506 28z"/>
<path style="fill:#585a9a; stroke:none;" d="M550 31L549 31C547.437 29.2379 544.933 28.5867 543.603 31.3187C540.454 37.7836 540.714 59.3544 549 60L549 50C560.188 55.9693 565.971 46.127 566 36L567 36L579 46C575.405 46.3139 573.416 44.1635 570.063 43.9012C565.277 43.5269 567.893 48.7634 570.063 50.2577C576.144 54.4437 587.896 49.4277 582.972 41.2245C580.726 37.4821 575.094 36.9929 572 34C574.703 33.8626 580.206 36.3126 582.338 34.8472C585.173 32.8983 580.584 29.6611 578.981 29.0239C573.012 26.6517 567.868 30.5699 566 36C562.777 31.0508 555.049 24.3743 550 31M19 29L19 30L25 30L19 29z"/>
<path style="fill:#d1ac3e; stroke:none;" d="M164 29L165 30L164 29M176 29L177 30L176 29z"/>
<path style="fill:#328fbd; stroke:none;" d="M241 29L242 30L241 29M521 29L522 30L521 29z"/>
<path style="fill:#585a9a; stroke:none;" d="M537 50L540 52L541 29C531.562 29.7354 537.484 38.0549 533.821 43.7523C529.189 50.9567 527.006 38.9832 527 36.0015L527 29C515.621 29.8866 519.1 58.6144 537 50z"/>
<path style="fill:#328fbd; stroke:none;" d="M535 29L536 30L535 29M580 29L581 30L580 29z"/>
<path style="fill:#585a9a; stroke:none;" d="M17 30L18 31L17 30z"/>
<path style="fill:#328fbd; stroke:none;" d="M18.3179 31.0278C14.7423 33.406 15.7453 39.502 18.4336 42.0988C23.3968 46.8928 43.0477 60.7273 49.8796 55.3434C63.3301 44.7436 35.4597 35.3292 29 32.0432C25.9755 30.5047 21.506 28.9073 18.3179 31.0278z"/>
<path style="fill:#585a9a; stroke:none;" d="M26 30L27 31L26 30z"/>
<path style="fill:#328fbd; stroke:none;" d="M216 30L216 51L217 51L216 30z"/>
<path style="fill:#d1ac3e; stroke:none;" d="M312 30L313 31L312 30M376 30L377 31L376 30z"/>
<path style="fill:#328fbd; stroke:none;" d="M549 30L550 31L549 30z"/>
<path style="fill:#585a9a; stroke:none;" d="M28 31L29 32L28 31z"/>
<path style="fill:#328fbd; stroke:none;" d="M121 31L122 32L121 31M377 31L378 32L377 31M408 31L409 32L408 31M500 31L501 32L500 31z"/>
<path style="fill:#585a9a; stroke:none;" d="M29 32L30 33L29 32M31 33L32 34L31 33z"/>
<path style="fill:#328fbd; stroke:none;" d="M157 33L158 34L157 33M203 33L204 34L203 33M234 33L235 34L234 33M278 33L279 34L278 33M573 33L574 34L573 33z"/>
<path style="fill:#585a9a; stroke:none;" d="M33 34L34 35L33 34z"/>
<path style="fill:#328fbd; stroke:none;" d="M148 34L149 35L148 34M155 34L156 35L155 34z"/>
<path style="fill:#0e0f10; stroke:none;" d="M156.228 35.0324C150.723 38.2871 154.746 48.7674 160.853 45.7623C166.977 42.7487 163.14 30.9468 156.228 35.0324M179.279 35.0324C173.422 38.6103 178.751 49.4736 184.852 45.3526C190.839 41.3088 185.755 31.0763 179.279 35.0324M202.434 35.0324C197.293 38.4475 201.786 49.5519 207.772 45.3526C213.45 41.3702 208.64 30.9093 202.434 35.0324M232 37L241 37C238.032 33.9723 234.522 33.1144 232 37z"/>
<path style="fill:#328fbd; stroke:none;" d="M293 34L294 35L293 34z"/>
<path style="fill:#0e0f10; stroke:none;" d="M292 37L301 37C298.058 34.0075 294.623 33.2921 292 37M334 37L343 37C340.478 33.1144 336.968 33.9723 334 37M366.434 35.0316C361.369 38.4316 365.547 49.173 371.722 45.6381C377.944 42.0764 373.047 30.5924 366.434 35.0316M390.279 35.0324C385.059 38.2279 388.751 48.6961 394.867 45.7623C401.583 42.5407 397.051 30.8875 390.279 35.0324M412 37L421 37C418.293 33.2503 415.041 33.8956 412 37M506.228 34.7469C500.058 37.5052 504.251 49.2882 510.772 45.777C516.688 42.5916 513.308 31.5811 506.228 34.7469M552.147 35.0324C546.375 38.3443 550.42 49.2814 556.853 45.9282C562.87 42.7912 559.101 31.0431 552.147 35.0324z"/>
<path style="fill:#d1ac3e; stroke:none;" d="M572 34L573 35L572 34z"/>
<path style="fill:#328fbd; stroke:none;" d="M578 34L579 35L578 34z"/>
<path style="fill:#d1ac3e; stroke:none;" d="M194 35L195 36L194 35M300 35L301 36L300 35M497 35L498 36L497 35M94 42C87.7521 41.6752 82.951 36.4271 77 36.4275C69.5485 36.4279 55.3873 46.7686 63.3179 54.6821C69.8098 61.1601 90.1555 47.9892 94 42M147 36L148 37L147 36M559 36L560 37L559 36M566 36L567 37L566 36M164 38L165 39L164 38M466 38L467 39L466 38z"/>
<path style="fill:#328fbd; stroke:none;" d="M121 39L122 40L121 39M451 39L452 40L451 39z"/>
<path style="fill:#585a9a; stroke:none;" d="M45 40L46 41L45 40z"/>
<path style="fill:#d1ac3e; stroke:none;" d="M164 40L165 41L164 40M146 41L147 42L146 41z"/>
<path style="fill:#328fbd; stroke:none;" d="M176 41L177 42L176 41M283 41L284 42L283 41M348 41L349 42L348 41M153 42L154 43L153 42z"/>
<path style="fill:#d1ac3e; stroke:none;" d="M276 42L277 43L276 42z"/>
<path style="fill:#328fbd; stroke:none;" d="M285 42L286 43L285 42z"/>
<path style="fill:#d1ac3e; stroke:none;" d="M374 42L375 43L374 42z"/>
<path style="fill:#328fbd; stroke:none;" d="M560 42L561 43L560 42M576 42L577 43L576 42z"/>
<path style="fill:#585a9a; stroke:none;" d="M20 43L21 44L20 43z"/>
<path style="fill:#d1ac3e; stroke:none;" d="M200 43L201 44L200 43M364 43L365 44L364 43M424 43L425 44L424 43z"/>
<path style="fill:#328fbd; stroke:none;" d="M513 43L514 44L513 43M348 44L349 45L348 44z"/>
<path style="fill:#d1ac3e; stroke:none;" d="M358 45L359 46L358 45M372 45L373 46L372 45z"/>
<path style="fill:#328fbd; stroke:none;" d="M143 46L144 47L143 46M238 46L239 47L238 46M312 46L313 47L312 46M321 46L322 47L321 46z"/>
<path style="fill:#d1ac3e; stroke:none;" d="M337 46L338 47L337 46M394 46L395 47L394 46M418 46L419 47L418 46M564 46L565 47L564 46z"/>
<path style="fill:#328fbd; stroke:none;" d="M227 47L228 48L227 47M120 48L121 49L120 48M150 48L151 49L150 48M425 48L426 49L425 48M151 49L152 50L151 49M361 49L362 50L361 49z"/>
<path style="fill:#d1ac3e; stroke:none;" d="M568 49L569 50L568 49z"/>
<path style="fill:#585a9a; stroke:none;" d="M32 50L33 51L32 50z"/>
<path style="fill:#d1ac3e; stroke:none;" d="M188 50L189 51L188 50M210 50L211 51L210 50M434 50L435 51L434 50z"/>
<path style="fill:#328fbd; stroke:none;" d="M475 50L476 51L475 50M536 50L537 51L536 50M581 50L582 51L581 50z"/>
<path style="fill:#d1ac3e; stroke:none;" d="M177 51L178 52L177 51z"/>
<path style="fill:#328fbd; stroke:none;" d="M200 51L201 52L200 51z"/>
<path style="fill:#0e0f10; stroke:none;" d="M209 51L201 52C203.217 55.7818 209.835 56.7792 209 51z"/>
<path style="fill:#328fbd; stroke:none;" d="M221 51L222 52L221 51M260 51L260 52L269 52L260 51M316.667 51.3333L317.333 51.6667L316.667 51.3333M353 51L354 52L353 51M372 51L373 52L372 51z"/>
<path style="fill:#d1ac3e; stroke:none;" d="M389 51L390 52L389 51z"/>
<path style="fill:#328fbd; stroke:none;" d="M421 51L422 52L421 51M431 51L432 52L431 51M471 51L472 52L471 51M487 51L488 52L487 51M538 51L539 52L538 51M540 51L541 52L540 51z"/>
<path style="fill:#d1ac3e; stroke:none;" d="M571 51L572 52L571 51z"/>
<path style="fill:#328fbd; stroke:none;" d="M579 51L580 52L579 51z"/>
<path style="fill:#585a9a; stroke:none;" d="M52 52L53 53L52 52z"/>
<path style="fill:#d1ac3e; stroke:none;" d="M200 52L201 53L200 52z"/>
<path style="fill:#e94236; stroke:none;" d="M76 53L77 54L76 53z"/>
<path style="fill:#d1ac3e; stroke:none;" d="M209 53L210 54L209 53z"/>
<path style="fill:#585a9a; stroke:none;" d="M39 54L40 55L39 54z"/>
<path style="fill:#e94236; stroke:none;" d="M62 54L63 55L62 54M63 55L64 56L63 55z"/>
<path style="fill:#328fbd; stroke:none;" d="M203 55L204 56L203 55z"/>
<path style="fill:#585a9a; stroke:none;" d="M44 56L45 57L44 56M46 56L47 57L46 56z"/>
<path style="fill:#328fbd; stroke:none;" d="M134 83L134 81L133 80C130.542 80.852 127.694 82.493 125.019 81.8827C119.416 80.6051 118.567 73.7112 123.113 70.6219C125.987 68.6686 129.037 70.0858 132 71L133 70L133 68C112.168 57.9749 111.891 94.5865 134 83M135 66L135 85L138 85L138 66L135 66M179 66L179 72C171.653 70.0058 164.473 78.4465 171.434 84.2539C174.305 86.6495 178.647 85.2624 182 85L182 66L179 66z"/>
<path style="fill:#585a9a; stroke:none;" d="M206 66L206 85L210 85L210 73L211 73C212.878 77.9539 215.718 83.3755 221 85L221 66L218 66L218 78C214.428 73.3191 212.288 67.0168 206 66M117 70L118 71L117 70z"/>
<path style="fill:#328fbd; stroke:none;" d="M144.059 71.7469C136.373 74.8062 140.676 88.0837 148.956 85.2145C157.694 82.1865 152.726 68.2969 144.059 71.7469M155 71C155 81.39 155.636 85.8642 167 85L167 71L164 71C163.991 82.5156 158.009 82.5156 158 71L155 71z"/>
<path style="fill:#585a9a; stroke:none;" d="M223 73L223 75L226 76C218.267 84.1988 228.593 85.5014 235 85C235 75.8439 233.969 68.3591 223 73M247 84C243.828 87.6784 241.447 86.8604 237 86C238.584 91.015 245.693 93.1348 248.821 87.8519C251.405 83.4887 250 75.9007 250 71C246.213 71.1802 241.332 70.3357 238.434 73.3187C232.102 79.8363 239.971 87.0564 247 84M252 71L252 91L255 91L255 85C261.788 86.4521 270.003 79.9751 263.566 73.3187C260.677 70.3322 255.781 71.1799 252 71M267 71C267 81.5186 267.589 85.8917 279 85L279 71L276 71C275.991 82.5156 270.009 82.5156 270 71L267 71M281 71L281 85L290 71L281 71z"/>
<path style="fill:#328fbd; stroke:none;" d="M224 72L225 73L224 72z"/>
<path style="fill:#585a9a; stroke:none;" d="M193.278 74.1752C190.052 75.8189 192.312 81.0284 195.542 78.9144C198.126 77.2226 196.3 72.6353 193.278 74.1752z"/>
<path style="fill:#328fbd; stroke:none;" d="M214 73L215 74L214 73z"/>
<path style="fill:#0e0f10; stroke:none;" d="M145.303 75.1366C141.809 77.0367 143.801 83.3767 147.867 81.7438C152.314 79.9583 149.543 72.8314 145.303 75.1366M174.299 75.1759C170.811 76.8862 172.838 83.4974 176.701 81.7438C180.258 80.129 178.134 73.2958 174.299 75.1759M226 75L226 76L232 76L226 75M241.434 75.0864C238.08 77.1712 240.85 83.5568 244.578 81.6728C248.424 79.7292 245.338 72.6599 241.434 75.0864M257.306 75.1366C253.97 76.9695 255.939 83.3956 259.812 81.7438C264.076 79.925 261.559 72.8002 257.306 75.1366z"/>
<path style="fill:#328fbd; stroke:none;" d="M289 74L290 75L289 74z"/>
<path style="fill:#0e0f10; stroke:none;" d="M226 80L226 82C229.314 82.4991 230.38 81.9406 232 79L226 80z"/>
<path style="fill:#328fbd; stroke:none;" d="M265 80L266 81L265 80M261 81L262 82L261 81M216 82L217 83L216 82z"/>
<path style="fill:#585a9a; stroke:none;" d="M142 84L143 85L142 84z"/>
</svg>
